<svg xmlns="http://www.w3.org/2000/svg" width="25" height="25" viewBox="0 0 25 25">
  <g id="sad-sleepy-emoticon-face-square" transform="translate(0 -0.001)">
    <path id="Path_28" data-name="Path 28" d="M12.5,0a12.5,12.5,0,1,0,8.844,3.658A12.466,12.466,0,0,0,12.5,0ZM19.979,19.98a10.572,10.572,0,1,1,0-14.958A10.546,10.546,0,0,1,19.979,19.98ZM5.819,12.332A.708.708,0,0,1,6.787,11.3a1.187,1.187,0,0,0,1.64-.021.708.708,0,0,1,.912-.028.686.686,0,0,1,.089.083.708.708,0,0,1-.055,1A2.574,2.574,0,0,1,5.819,12.332Zm13.392-1.008a.709.709,0,0,1-.055,1,2.574,2.574,0,0,1-3.553,0,.708.708,0,0,1,.968-1.035,1.187,1.187,0,0,0,1.64-.021.708.708,0,0,1,1,.055ZM18.154,18.7a.707.707,0,1,1-1.3.561,4.425,4.425,0,0,0-4.107-2.6,4.387,4.387,0,0,0-4.13,2.595.707.707,0,1,1-1.306-.542,5.8,5.8,0,0,1,5.437-3.466A5.834,5.834,0,0,1,18.154,18.7Z" fill="#3a62bf"/>
  </g>
</svg>
