<svg xmlns="http://www.w3.org/2000/svg" width="493.337" height="445.612" viewBox="0 0 493.337 445.612">
  <g id="Group_508" data-name="Group 508" transform="translate(51.93 -224.105)">
    <g id="Group_57" data-name="Group 57" transform="translate(0 -3)">
      <rect id="Rectangle_64" data-name="Rectangle 64" width="0.771" height="50.355" transform="translate(235.957 378.666) rotate(-46.407)" fill="#e6e6e6"/>
      <path id="Path_100" data-name="Path 100" d="M493.766,143.982l-.77.047.232,3.793-3.8-.046-.008.771,4.629.055Z" transform="translate(-220.748 265.081)" fill="#e6e6e6"/>
      <path id="Path_101" data-name="Path 101" d="M422.373,76.261l-.008.771-3.8-.046.232,3.793-.771.047-.281-4.621Z" transform="translate(-182.126 301.603)" fill="#e6e6e6"/>
      <circle id="Ellipse_24" data-name="Ellipse 24" cx="4.239" cy="4.239" r="4.239" transform="translate(250.22 391.507)" fill="#e6e6e6"/>
      <rect id="Rectangle_65" data-name="Rectangle 65" width="50.355" height="0.771" transform="translate(115.862 412.828) rotate(-43.593)" fill="#e6e6e6"/>
      <path id="Path_102" data-name="Path 102" d="M103.815,148.6l4.629-.055-.009-.771-3.8.046.232-3.793-.77-.047Z" transform="translate(11.708 265.081)" fill="#e6e6e6"/>
      <path id="Path_103" data-name="Path 103" d="M180.119,76.206l-.282,4.621-.77-.047.232-3.793-3.8.046-.008-.771Z" transform="translate(-26.915 301.603)" fill="#e6e6e6"/>
      <circle id="Ellipse_25" data-name="Ellipse 25" cx="4.239" cy="4.239" r="4.239" transform="translate(130.124 391.507)" fill="#e6e6e6"/>
      <path id="Path_104" data-name="Path 104" d="M590.556,222.867H526.583a3.472,3.472,0,0,1-3.469-3.468v-80.93A3.472,3.472,0,0,1,526.583,135h63.974a3.472,3.472,0,0,1,3.468,3.468V219.4A3.472,3.472,0,0,1,590.556,222.867Zm-63.974-87.1a2.7,2.7,0,0,0-2.7,2.7V219.4a2.7,2.7,0,0,0,2.7,2.7h63.974a2.7,2.7,0,0,0,2.7-2.7v-80.93a2.7,2.7,0,0,0-2.7-2.7Z" transform="translate(-364.118 209.368)" fill="#3f3d56"/>
      <path id="Path_105" data-name="Path 105" d="M569.978,195.887H555.9a1.736,1.736,0,0,1-1.734-1.734V177.536A1.736,1.736,0,0,1,555.9,175.8h14.082a1.736,1.736,0,0,1,1.734,1.734v16.618A1.736,1.736,0,0,1,569.978,195.887Z" transform="translate(-380.849 187.382)" fill="#4c74d0"/>
      <path id="Path_106" data-name="Path 106" d="M629.314,212.6H615.232a1.736,1.736,0,0,1-1.734-1.734V194.25a1.736,1.736,0,0,1,1.734-1.734h14.082a1.736,1.736,0,0,1,1.734,1.734v16.618A1.736,1.736,0,0,1,629.314,212.6Z" transform="translate(-412.822 178.375)" fill="#ccc"/>
      <path id="Path_107" data-name="Path 107" d="M581.678,263.58H567.6a1.736,1.736,0,0,1-1.734-1.734V245.228a1.736,1.736,0,0,1,1.734-1.734h14.082a1.736,1.736,0,0,1,1.734,1.734v16.618A1.736,1.736,0,0,1,581.678,263.58Z" transform="translate(-387.153 150.905)" fill="#9bbaff"/>
      <path id="Path_108" data-name="Path 108" d="M814.471,403.324H750.5a3.472,3.472,0,0,1-3.468-3.468v-80.93a3.472,3.472,0,0,1,3.468-3.468h63.974a3.472,3.472,0,0,1,3.468,3.468v80.93A3.472,3.472,0,0,1,814.471,403.324Zm-63.974-87.1a2.7,2.7,0,0,0-2.7,2.7v80.93a2.7,2.7,0,0,0,2.7,2.7h63.974a2.7,2.7,0,0,0,2.7-2.7v-80.93a2.7,2.7,0,0,0-2.7-2.7Z" transform="translate(-497.536 105.322)" fill="#3f3d56"/>
      <path id="Path_109" data-name="Path 109" d="M820.262,350.715H798.3a1.542,1.542,0,0,1,0-3.083h21.967a1.542,1.542,0,0,1,0,3.083Z" transform="translate(-524.331 87.984)" fill="#4c74d0"/>
      <path id="Path_110" data-name="Path 110" d="M818.443,382.472H774.9a1.542,1.542,0,0,1,0-3.083h43.548a1.542,1.542,0,1,1,0,3.083Z" transform="translate(-511.722 70.872)" fill="#ccc"/>
      <path id="Path_111" data-name="Path 111" d="M818.443,400.022H774.9a1.542,1.542,0,0,1,0-3.083h43.548a1.542,1.542,0,1,1,0,3.083Z" transform="translate(-511.722 61.415)" fill="#ccc"/>
      <path id="Path_112" data-name="Path 112" d="M818.443,417.572H774.9a1.542,1.542,0,0,1,0-3.083h43.548a1.542,1.542,0,1,1,0,3.083Z" transform="translate(-511.722 51.958)" fill="#ccc"/>
      <path id="Path_113" data-name="Path 113" d="M818.443,435.122H774.9a1.542,1.542,0,0,1,0-3.083h43.548a1.542,1.542,0,1,1,0,3.083Z" transform="translate(-511.722 42.501)" fill="#ccc"/>
      <path id="Path_114" data-name="Path 114" d="M818.443,452.672H774.9a1.542,1.542,0,0,1,0-3.083h43.548a1.542,1.542,0,1,1,0,3.083Z" transform="translate(-511.722 33.044)" fill="#ccc"/>
      <path id="Path_115" data-name="Path 115" d="M818.443,470.222H774.9a1.542,1.542,0,0,1,0-3.083h43.548a1.542,1.542,0,1,1,0,3.083Z" transform="translate(-511.722 23.587)" fill="#ccc"/>
      <path id="Path_116" data-name="Path 116" d="M366.642,403.324H302.668a3.472,3.472,0,0,1-3.468-3.468v-80.93a3.472,3.472,0,0,1,3.468-3.468h63.974a3.472,3.472,0,0,1,3.468,3.468v80.93A3.472,3.472,0,0,1,366.642,403.324Zm-63.974-87.1a2.7,2.7,0,0,0-2.7,2.7v80.93a2.7,2.7,0,0,0,2.7,2.7h63.974a2.7,2.7,0,0,0,2.7-2.7v-80.93a2.7,2.7,0,0,0-2.7-2.7Z" transform="translate(-230.7 105.322)" fill="#3f3d56"/>
      <path id="Path_117" data-name="Path 117" d="M399.13,353.29H379.861a1.542,1.542,0,1,1,0-3.083H399.13a1.542,1.542,0,1,1,0,3.083Z" transform="translate(-273.334 86.597)" fill="#3f3d56"/>
      <path id="Path_118" data-name="Path 118" d="M399.13,370.84H379.861a1.542,1.542,0,1,1,0-3.083H399.13a1.542,1.542,0,0,1,0,3.083Z" transform="translate(-273.334 77.14)" fill="#3f3d56"/>
      <path id="Path_119" data-name="Path 119" d="M341.741,360.965H327.659a1.736,1.736,0,0,1-1.734-1.734V342.613a1.736,1.736,0,0,1,1.734-1.734h14.082a1.736,1.736,0,0,1,1.734,1.734v16.618a1.736,1.736,0,0,1-1.734,1.734Z" transform="translate(-245.101 91.623)" fill="#4c74d0"/>
      <path id="Path_120" data-name="Path 120" d="M370.47,406.776H326.922a1.542,1.542,0,1,1,0-3.083H370.47a1.542,1.542,0,1,1,0,3.083Z" transform="translate(-244.807 57.775)" fill="#ccc"/>
      <path id="Path_121" data-name="Path 121" d="M370.47,424.326H326.922a1.542,1.542,0,1,1,0-3.083H370.47a1.542,1.542,0,0,1,0,3.083Z" transform="translate(-244.807 48.319)" fill="#ccc"/>
      <path id="Path_122" data-name="Path 122" d="M370.47,441.876H326.922a1.542,1.542,0,1,1,0-3.083H370.47a1.542,1.542,0,1,1,0,3.083Z" transform="translate(-244.807 38.862)" fill="#ccc"/>
      <path id="Path_123" data-name="Path 123" d="M370.47,459.426H326.922a1.542,1.542,0,1,1,0-3.083H370.47a1.542,1.542,0,1,1,0,3.083Z" transform="translate(-244.807 29.405)" fill="#ccc"/>
      <path id="Path_124" data-name="Path 124" d="M370.47,476.976H326.922a1.542,1.542,0,1,1,0-3.083H370.47a1.542,1.542,0,0,1,0,3.083Z" transform="translate(-244.807 19.948)" fill="#ccc"/>
      <g id="Group_56" data-name="Group 56" transform="translate(5.818 -17.728)">
        <ellipse id="Ellipse_23" data-name="Ellipse 23" cx="43.79" cy="2.996" rx="43.79" ry="2.996" transform="translate(144.536 614.903)" fill="#e6e6e6"/>
        <path id="Path_125" data-name="Path 125" d="M497.9,584.7V569.508a1.587,1.587,0,0,1,1.585-1.585h12.873a1.587,1.587,0,0,1,1.586,1.585V584.7a1.587,1.587,0,0,1-1.586,1.585H499.481A1.587,1.587,0,0,1,497.9,584.7Z" transform="translate(-343.772 -32.871)" fill="#e6e6e6"/>
        <path id="Path_126" data-name="Path 126" d="M508.9,572.7V557.508a1.587,1.587,0,0,1,1.585-1.585h12.873a1.587,1.587,0,0,1,1.585,1.585V572.7a1.587,1.587,0,0,1-1.585,1.585H510.481A1.587,1.587,0,0,1,508.9,572.7Z" transform="translate(-350.135 -25.929)" fill="#4c74d0"/>
        <path id="Path_127" data-name="Path 127" d="M638.922,536.237a3.827,3.827,0,0,1-1.011-5.78l-3.99-29.168,8.312.408,1.305,28.45a3.848,3.848,0,0,1-4.616,6.09Z" transform="translate(-422.454 5.672)" fill="#a0616a"/>
        <path id="Path_128" data-name="Path 128" d="M632.628,474.311a1.562,1.562,0,0,1-.635.449l-7.47,2.851a1.569,1.569,0,0,1-1.994-.828l-6.617-14.871a6.214,6.214,0,0,1-.3-4.4,6.044,6.044,0,0,1,4.6-4.124,5.765,5.765,0,0,1,2.483.035,6.02,6.02,0,0,1,4.327,3.761l5.883,15.552a1.573,1.573,0,0,1-.274,1.573Z" transform="translate(-411.708 33.447)" fill="#ccc"/>
        <path id="Path_129" data-name="Path 129" d="M255.144,590.578h-5.168L248.1,570.549l7.043.094Z" transform="translate(-73.151 22.522)" fill="#a0616a"/>
        <path id="Path_130" data-name="Path 130" d="M235.179,614.557h9.968v6.276H228.9A6.276,6.276,0,0,1,235.179,614.557Z" transform="translate(-62.046 -2.934)" fill="#2f2e41"/>
        <path id="Path_131" data-name="Path 131" d="M311.342,590.707h-5.168l-2.459-19.935h7.628Z" transform="translate(-105.319 22.393)" fill="#a0616a"/>
        <path id="Path_132" data-name="Path 132" d="M292.179,614.557h9.967v6.276H285.9A6.276,6.276,0,0,1,292.179,614.557Z" transform="translate(-95.016 -2.934)" fill="#2f2e41"/>
        <path id="Path_133" data-name="Path 133" d="M576.933,634.533l-8.117-.6a1.9,1.9,0,0,1-1.755-1.8l-1.81-37.406a1.476,1.476,0,0,0-2.919-.225l-7.551,36.848a1.9,1.9,0,0,1-2.01,1.51l-7.338-.587a1.9,1.9,0,0,1-1.736-2.079l6.807-68.073a1.9,1.9,0,0,1,2.291-1.665l25.887,5.627a1.9,1.9,0,0,1,1.494,1.889l-1.206,64.706a1.9,1.9,0,0,1-1.892,1.862C577.03,634.538,576.982,634.536,576.933,634.533Z" transform="translate(-370.261 -28.526)" fill="#2f2e41"/>
        <ellipse id="Ellipse_26" data-name="Ellipse 26" cx="10.354" cy="10.354" rx="10.354" ry="10.354" transform="translate(189.217 455.967)" fill="#a0616a"/>
        <path id="Path_134" data-name="Path 134" d="M563.373,496.09a9.259,9.259,0,0,1-3.075-7.11c0-14.882,12.881-48.13,13.285-49.167.039-.25.379-.358,2.162-1.562s4.357-1.391,7.647-.55a1.888,1.888,0,0,1,1.37,1.4l.612.884A1.472,1.472,0,0,0,586.23,441c2.653,1.118,11.086,6.272,8.213,25.67-2.669,18.019-3.753,28.616-4.095,32.336a1.893,1.893,0,0,1-1.716,1.714c-1.3.116-3.534.271-6.193.271C576.276,500.989,567.821,500.157,563.373,496.09Z" transform="translate(-379.867 42.753)" fill="#ccc"/>
        <path id="Path_135" data-name="Path 135" d="M537.711,520.2a3.827,3.827,0,0,1,2.382-5.363l12.939-26.443,6.675,4.971-14.769,24.351a3.848,3.848,0,0,1-7.226,2.485Z" transform="translate(-366.578 13.133)" fill="#a0616a"/>
        <path id="Path_136" data-name="Path 136" d="M578.729,468.479a1.562,1.562,0,0,1-.777.019l-7.792-1.8a1.569,1.569,0,0,1-1.194-1.8l2.792-16.035a6.213,6.213,0,0,1,2.2-3.821,6.044,6.044,0,0,1,6.118-.861,5.766,5.766,0,0,1,2.042,1.413,6.02,6.02,0,0,1,1.5,5.534l-3.78,16.192A1.572,1.572,0,0,1,578.729,468.479Z" transform="translate(-384.869 38.973)" fill="#ccc"/>
        <path id="Path_137" data-name="Path 137" d="M585.635,396.437a4.462,4.462,0,0,1-1.2-3.957c.361-1.888.573-3.124.613-3.574h0c.138-1.538-1.417-2.783-2.955-2.981-.06-.008-.109-.013-.151-.016.039.039.081.078.118.113.292.274.656.616.57.969-.052.212-.246.363-.593.46a5.022,5.022,0,0,1-5.831-1.946,4.648,4.648,0,0,1-.887-1.938c-.563-2.763.938-5.119,2.3-6.608a7.993,7.993,0,0,1,5.225-2.846,4.588,4.588,0,0,1,4.531,2.772,3.439,3.439,0,0,1,2.682-1.512,6.181,6.181,0,0,1,3.439.957,11.469,11.469,0,0,1-4.061,21.357,4.383,4.383,0,0,1-.731.062,4.264,4.264,0,0,1-3.067-1.309Z" transform="translate(-388.488 79.24)" fill="#2f2e41"/>
      </g>
      <g id="lamp" transform="translate(187.372 395.064)">
        <path id="Path_138" data-name="Path 138" d="M25.26,15.129A10.109,10.109,0,0,1,21.4,23.089,4.858,4.858,0,0,0,19.544,26l-.072-.014H10.789l-.1.014a4.4,4.4,0,0,0-1.65-2.778A10.131,10.131,0,1,1,25.26,15.129Z" transform="translate(2.235 2.236)" fill="#ffc107"/>
        <path id="Path_139" data-name="Path 139" d="M15.129,5a10.36,10.36,0,0,0-2.169.23A10.122,10.122,0,0,0,9.038,23.219,4.4,4.4,0,0,1,10.688,26l.1-.014H15.13V5Z" transform="translate(2.235 2.236)" fill="#dea806"/>
        <g id="Group_47" data-name="Group 47" transform="translate(25.79 4.767)">
          <path id="Path_140" data-name="Path 140" d="M18.906,7.469a1.086,1.086,0,0,1-.767-1.854l2-2a1.086,1.086,0,0,1,1.535,1.535l-2,2A1.089,1.089,0,0,1,18.906,7.469Z" transform="translate(-17.821 -3.294)" fill="#ffc107"/>
          <path id="Path_141" data-name="Path 141" d="M24.46,13.421H21.628a1.085,1.085,0,0,1,0-2.171H24.46a1.085,1.085,0,0,1,0,2.171Z" transform="translate(-16.604 0.263)" fill="#ffc107"/>
          <path id="Path_142" data-name="Path 142" d="M20.909,21.995a1.077,1.077,0,0,1-.767-.318l-2-2a1.086,1.086,0,0,1,1.535-1.535l2,2a1.086,1.086,0,0,1-.768,1.854Z" transform="translate(-17.821 3.201)" fill="#ffc107"/>
        </g>
        <path id="Path_143" data-name="Path 143" d="M17.786,19.514a4.28,4.28,0,0,0-.072.753V23.48a2.545,2.545,0,0,1-2.532,2.532H11.564A2.638,2.638,0,0,1,9.031,23.06V20.5a4.454,4.454,0,0,0-.1-.984l.1-.014h8.683Z" transform="translate(3.993 8.719)" fill="#607d8b"/>
        <path id="Path_144" data-name="Path 144" d="M13.373,19.5H9.031l-.1.014a4.454,4.454,0,0,1,.1.984V23.06a2.638,2.638,0,0,0,2.532,2.952h1.809Z" transform="translate(3.993 8.719)" fill="#546d79"/>
        <path id="Path_145" data-name="Path 145" d="M12.335,5A1.086,1.086,0,0,1,11.25,3.917V1.085a1.085,1.085,0,0,1,2.171,0V3.917A1.086,1.086,0,0,1,12.335,5Z" transform="translate(5.03)" fill="#ffc107"/>
        <path id="Path_146" data-name="Path 146" d="M12.335,0A1.086,1.086,0,0,0,11.25,1.085V3.917A1.086,1.086,0,0,0,12.335,5Z" transform="translate(5.03)" fill="#dea806"/>
        <path id="Path_147" data-name="Path 147" d="M6.383,7.469a1.077,1.077,0,0,1-.767-.318l-2-2A1.086,1.086,0,0,1,5.149,3.612l2,2a1.086,1.086,0,0,1-.768,1.854Z" transform="translate(1.473 1.473)" fill="#ffc107"/>
        <path id="Path_148" data-name="Path 148" d="M3.613,3.515a1.086,1.086,0,0,0,0,1.535l2,2a1.083,1.083,0,0,0,1.534,0Z" transform="translate(1.473 1.572)" fill="#dea806"/>
        <path id="Path_149" data-name="Path 149" d="M3.917,13.421H1.085a1.085,1.085,0,0,1,0-2.171H3.917a1.085,1.085,0,0,1,0,2.171Z" transform="translate(0 5.03)" fill="#ffc107"/>
        <path id="Path_150" data-name="Path 150" d="M5,12H0a1.086,1.086,0,0,0,1.085,1.085H3.917A1.086,1.086,0,0,0,5,12Z" transform="translate(0 5.366)" fill="#dea806"/>
        <path id="Path_151" data-name="Path 151" d="M4.38,21.995a1.086,1.086,0,0,1-.767-1.854l2-2a1.086,1.086,0,0,1,1.535,1.535l-2,2A1.083,1.083,0,0,1,4.38,21.995Z" transform="translate(1.473 7.968)" fill="#ffc107"/>
        <path id="Path_152" data-name="Path 152" d="M7.052,18.041,3.515,21.578a1.083,1.083,0,0,0,1.534,0l2-2a1.084,1.084,0,0,0,0-1.534Z" transform="translate(1.572 8.067)" fill="#dea806"/>
        <path id="Path_153" data-name="Path 153" d="M17.65,14.736a1.086,1.086,0,0,1-1.085-1.085,3.983,3.983,0,0,0-3.98-3.98,1.085,1.085,0,1,1,0-2.171,6.158,6.158,0,0,1,6.15,6.15A1.086,1.086,0,0,1,17.65,14.736Z" transform="translate(5.142 3.353)" fill="#ffd54f"/>
        <path id="Path_154" data-name="Path 154" d="M11.842,8.246c-.111,0-.226,0-.342.006a1.086,1.086,0,0,0,1.085,1.085,3.983,3.983,0,0,1,3.98,3.98A1.086,1.086,0,0,0,17.65,14.4C18.249,14.4,18.453,8.246,11.842,8.246Z" transform="translate(5.142 3.687)" fill="#deb945"/>
      </g>
      <path id="Path_181" data-name="Path 181" d="M124.034,95.676c-2.658,1.1-5.385,2.518-6.846,5-1.547,2.621-1.362,5.875-1.074,8.907,2.51,26.3,9.121,54.263-2.3,78.083-5.542,11.556-14.81,20.817-22.183,31.311s-12.938,23.6-9.516,35.944c4.18,15.086,19.78,23.45,30.3,35.059,6.883,7.59,11.708,16.814,18.13,24.8s15.222,15.02,25.474,15.489c14.744.679,26.741-12.054,41.2-15,14.81-3.02,29.723,4.665,41.732,13.864s22.931,20.344,36.923,26.087c15.452,6.348,35.96-10.085,52.226-6.271,2.414.567,12.573,6.406,12.573,6.406,11.834,3.722,15.179,20.567,27.485,23.866,14.7,3.941,38.342,16.062,49.733,6,14.847-13.165,5.036-36.01,14.519-53.424,8.808-16.18,36.205-40.32,47.811-54.625C501.1,251.417,443.9,260.2,426.167,232.2s-19.608-67.385-47.814-94.8-50.77-10.339-65.009-14.861c-36.625-11.623-70.61-18.909-70.61-18.909s-40.342,2.66-61.41,14.858C163.038,129.078,143.065,87.781,124.034,95.676Z" transform="matrix(0.891, -0.454, 0.454, 0.891, -167.157, 362.826)" fill="#6c63ff" opacity="0.1"/>
    </g>
  </g>
</svg>
