<svg xmlns="http://www.w3.org/2000/svg" width="469.907" height="378.502" viewBox="0 0 469.907 378.502">
  <g id="Group_506" data-name="Group 506" transform="translate(42.288 -282.121)">
    <path id="Path_181" data-name="Path 181" d="M126.2,94.3c-2.792,1.055-5.657,2.409-7.191,4.783-1.625,2.508-1.431,5.621-1.128,8.523,2.636,25.163,9.581,51.924-2.412,74.716-5.821,11.058-15.558,19.919-23.3,29.961s-13.592,22.58-10,34.394c4.391,14.435,20.779,22.439,31.826,33.548,7.23,7.263,12.3,16.089,19.046,23.73s15.991,14.372,26.761,14.821c15.489.65,28.092-11.534,43.279-14.357,15.558-2.889,31.225,4.464,43.84,13.266s24.09,19.466,38.788,24.962c16.233,6.074,34.531,5.145,51.62,8.794,15.559,3.326,29.881,10.4,45.327,14.172s33.55,3.543,45.517-6.09c15.6-12.6,27.065-37.351,37.027-54.015,9.253-15.483-14.5-46.723-2.308-60.411,21.937-24.635,50.39-37.975,31.763-64.768s-22.232-45.447-56.733-49.671c-15.559-1.9-61.714.79-76.672-3.536-40.037-11.574-63.863-53.042-104.739-61.671-25.983-5.476-51.252,4.007-73.384,15.679C163.92,91.269,146.2,86.75,126.2,94.3Z" transform="translate(-134.071 314.967) rotate(-11)" fill="#6c63ff" opacity="0.1"/>
    <path id="Path_236" data-name="Path 236" d="M472.307,584.643v53.982H337.061c-15.409,0-27.947-12.109-27.947-26.991s12.537-26.991,27.947-26.991Z" transform="translate(-270 -81.667)" fill="#f2f2f2"/>
    <path id="Path_69" data-name="Path 69" d="M472.307,584.643v53.982H337.061c-15.409,0-27.947-12.109-27.947-26.991s12.537-26.991,27.947-26.991Z" transform="translate(-270.208 -138.764)" fill="#f2f2f2"/>
    <path id="Path_70" data-name="Path 70" d="M471.536,636.456a2.077,2.077,0,0,1-2.076,2.076h-138.9a28.445,28.445,0,1,1,0-56.889h138.9a2.076,2.076,0,0,1,0,4.153h-138.9a24.292,24.292,0,1,0,0,48.584h138.9a2.077,2.077,0,0,1,2.076,2.076Z" transform="translate(-266.114 -137.009)" fill="#4c74d0"/>
    <path id="Path_231" data-name="Path 231" d="M471.536,636.456a2.077,2.077,0,0,1-2.076,2.076h-138.9a28.445,28.445,0,1,1,0-56.889h138.9a2.076,2.076,0,0,1,0,4.153h-138.9a24.292,24.292,0,1,0,0,48.584h138.9a2.077,2.077,0,0,1,2.076,2.076Z" transform="translate(-266.114 -80.12)" fill="#4c74d0"/>
    <path id="Path_71" data-name="Path 71" d="M496.867,613.474H351.529a.415.415,0,1,1,0-.831H496.867a.415.415,0,1,1,0,.831Z" transform="translate(-294.767 -155.137)" fill="#ccc"/>
    <path id="Path_232" data-name="Path 232" d="M496.867,613.474H351.529a.415.415,0,1,1,0-.831H496.867a.415.415,0,1,1,0,.831Z" transform="translate(-294.767 -98.248)" fill="#ccc"/>
    <path id="Path_72" data-name="Path 72" d="M496.867,637.474H351.529a.415.415,0,0,1,0-.831H496.867a.415.415,0,1,1,0,.831Z" transform="translate(-294.767 -169.171)" fill="#ccc"/>
    <path id="Path_233" data-name="Path 233" d="M496.867,637.474H351.529a.415.415,0,0,1,0-.831H496.867a.415.415,0,1,1,0,.831Z" transform="translate(-294.767 -112.282)" fill="#ccc"/>
    <path id="Path_73" data-name="Path 73" d="M496.867,661.474H351.529a.415.415,0,1,1,0-.831H496.867a.415.415,0,1,1,0,.831Z" transform="translate(-294.767 -183.205)" fill="#ccc"/>
    <path id="Path_234" data-name="Path 234" d="M496.867,661.474H351.529a.415.415,0,1,1,0-.831H496.867a.415.415,0,1,1,0,.831Z" transform="translate(-294.767 -126.315)" fill="#ccc"/>
    <path id="Path_74" data-name="Path 74" d="M496.867,685.474H351.529a.415.415,0,1,1,0-.831H496.867a.415.415,0,1,1,0,.831Z" transform="translate(-294.767 -197.239)" fill="#ccc"/>
    <path id="Path_235" data-name="Path 235" d="M496.867,685.474H351.529a.415.415,0,1,1,0-.831H496.867a.415.415,0,1,1,0,.831Z" transform="translate(-294.767 -140.35)" fill="#ccc"/>
    <path id="Path_75" data-name="Path 75" d="M742.868,480.689,709,522.724,603.685,437.868c-12-9.668-14.164-26.963-4.827-38.552s26.7-13.151,38.7-3.483Z" transform="translate(-274.241 -128.716) rotate(14)" fill="#f2f2f2"/>
    <path id="Path_76" data-name="Path 76" d="M707.778,521.055a2.077,2.077,0,0,1-2.919.314L596.7,434.22a28.445,28.445,0,1,1,35.693-44.3l108.159,87.149a2.076,2.076,0,1,1-2.605,3.233L629.788,393.155A24.292,24.292,0,1,0,599.3,430.986l108.159,87.149A2.077,2.077,0,0,1,707.778,521.055Z" transform="translate(-270.936 -123.03) rotate(14)" fill="#ccc"/>
    <path id="Path_77" data-name="Path 77" d="M775.424,503.024,662.253,411.837a.415.415,0,1,1,.521-.647l113.171,91.188a.415.415,0,1,1-.521.647Z" transform="translate(-310.169 -149.369) rotate(14)" fill="#ccc"/>
    <path id="Path_78" data-name="Path 78" d="M760.366,521.713,647.195,430.525a.415.415,0,1,1,.521-.647l113.171,91.188a.415.415,0,0,1-.521.647Z" transform="translate(-298.982 -157.842) rotate(14)" fill="#ccc"/>
    <path id="Path_79" data-name="Path 79" d="M745.308,540.4,632.137,449.214a.415.415,0,1,1,.521-.647l113.171,91.188a.415.415,0,0,1-.521.647Z" transform="translate(-287.794 -166.315) rotate(14)" fill="#ccc"/>
    <path id="Path_80" data-name="Path 80" d="M730.25,559.089,617.079,467.9a.415.415,0,1,1,.521-.647l113.171,91.188a.415.415,0,1,1-.521.647Z" transform="translate(-276.607 -174.788) rotate(14)" fill="#ccc"/>
    <path id="Path_87" data-name="Path 87" d="M634.488,376.475" transform="translate(-460.47 -17.037)" fill="#ffb8b8"/>
    <g id="Group_55" data-name="Group 55" transform="translate(0 -12.032)">
      <path id="Path_82" data-name="Path 82" d="M327.777,363.687h-4.449l-2.116-17.162h6.567Z" transform="translate(-186.931 88.826)" fill="#ffb8b8"/>
      <path id="Path_83" data-name="Path 83" d="M310,387.355h8.581v5.4H304.6a5.4,5.4,0,0,1,5.4-5.4Z" transform="translate(-176.785 63.888)" fill="#2f2e41"/>
      <path id="Path_84" data-name="Path 84" d="M210.982,363.687h-4.449l-2.116-17.162h6.567Z" transform="translate(-115.593 88.826)" fill="#ffb8b8"/>
      <path id="Path_85" data-name="Path 85" d="M193.209,387.355h8.581v5.4H187.806a5.4,5.4,0,0,1,5.4-5.4Z" transform="translate(-105.447 63.888)" fill="#2f2e41"/>
      <path id="Path_86" data-name="Path 86" d="M487.471,221.138v-1.946a12.552,12.552,0,0,1,12.552-12.552h0a12.552,12.552,0,0,1,12.552,12.552v1.946a9.049,9.049,0,0,1-9.049,9.049H496.52a9.049,9.049,0,0,1-9.049-9.049Z" transform="translate(-377.22 104.074)" fill="#2f2e41"/>
      <ellipse id="Ellipse_21" data-name="Ellipse 21" cx="9.559" cy="9.559" rx="9.559" ry="9.559" transform="translate(113.244 315.812)" fill="#ffb8b8"/>
      <path id="Path_88" data-name="Path 88" d="M384.292,327.15a3.649,3.649,0,0,1,5.558.653l8.195-1.55L400.2,331l-11.6,2.026a3.669,3.669,0,0,1-4.306-5.879Z" transform="translate(-313.485 31.075)" fill="#ffb8b8"/>
      <path id="Path_89" data-name="Path 89" d="M442.581,283.577l.107.162-13.437,8.852-22.674,7.24a1.365,1.365,0,0,0-.939,1.455l.495,4.26a1.362,1.362,0,0,0,1.639,1.175l21.34-4.574a7.708,7.708,0,0,0,2.869-1.263l15.1-10.741a3.882,3.882,0,0,0-4.388-6.4Z" transform="translate(-327.231 57.373)" fill="#ccc"/>
      <path id="Path_90" data-name="Path 90" d="M478.047,428.969a1.758,1.758,0,0,1-1.61-1.052l-20.4-50.4a.584.584,0,0,0-1.093.062L438.3,426.645a1.752,1.752,0,0,1-2.289,1.125l-5.581-2.093a1.747,1.747,0,0,1-1.127-1.442c-2.51-21.87,19.382-77.073,19.6-77.628l.061-.154,19.957,4.415.041.045c7.962,8.686,14.507,63.471,15.738,74.365a1.743,1.743,0,0,1-1.156,1.847l-4.926,1.742a1.736,1.736,0,0,1-.579.1Z" transform="translate(-341.571 18.675)" fill="#2f2e41"/>
      <path id="Path_91" data-name="Path 91" d="M491.2,308.293c-4.835,0-10.226-.964-11.885-4.943l-.038-.091.052-.085c1.31-2.149,3.041-5.815,2.111-6.5-1.833-1.355-2.722-3.585-2.643-6.626a15.965,15.965,0,0,1,11.2-14.588h0a49.674,49.674,0,0,1,5.551-1.429,9.45,9.45,0,0,1,7.836,1.935,9.546,9.546,0,0,1,3.54,7.344c.068,7.056-1.018,16.885-6.582,23.632a1.731,1.731,0,0,1-1.025.6A47.567,47.567,0,0,1,491.2,308.293Z" transform="translate(-371.916 63.027)" fill="#ccc"/>
      <path id="Path_92" data-name="Path 92" d="M505.832,349.054a3.719,3.719,0,0,1,4.545-2.594,3.659,3.659,0,0,1,.563.209l6.222-5.662,4.327,2.915-8.9,7.874a3.713,3.713,0,0,1-4.208,1.785,3.656,3.656,0,0,1-2.552-4.527Z" transform="translate(-388.35 22.002)" fill="#ffb8b8"/>
      <path id="Path_93" data-name="Path 93" d="M526.034,313.9a1.747,1.747,0,0,1-1.108-.4l-2.454-2.005a1.751,1.751,0,0,1,.042-2.746l10.291-7.893a.585.585,0,0,0,.11-.815l-6.352-8.4a5.17,5.17,0,0,1,.345-6.661h0a5.156,5.156,0,0,1,6.962-.557l.04.042,6.633,9.5a5.913,5.913,0,0,1-.14,9.413l-13.328,10.173A1.754,1.754,0,0,1,526.034,313.9Z" transform="translate(-398.206 57.229)" fill="#ccc"/>
      <path id="Path_94" data-name="Path 94" d="M497.965,224.144V219.4l8.467-3.7,8.074,3.7v4.743a.778.778,0,0,1-.778.778H498.744A.778.778,0,0,1,497.965,224.144Z" transform="translate(-383.63 98.537)" fill="#2f2e41"/>
      <path id="Path_95" data-name="Path 95" d="M518.231,191.216c-1.245-3.985,1.37-8.552,5.235-10.129s8.49-.475,11.751,2.131a19.829,19.829,0,0,1,6.358,10.544,59.072,59.072,0,0,1,1.474,12.412,8.34,8.34,0,1,1-7.994,2.961,10.265,10.265,0,0,0-11.944-15.922C520.77,194.191,517.834,191.648,518.231,191.216Z" transform="translate(-395.817 120.128)" fill="#2f2e41"/>
    </g>
    <g id="Group_45" data-name="Group 45" transform="translate(198.02 372.311)">
      <path id="Path_96" data-name="Path 96" d="M18.686,22.547A43.372,43.372,0,0,1,1.1,18.7a1.857,1.857,0,0,1-1.1-1.7V1.869A1.871,1.871,0,0,1,1.869,0H35.5a1.871,1.871,0,0,1,1.869,1.869V16.991a1.857,1.857,0,0,1-1.1,1.7h0a43.371,43.371,0,0,1-17.585,3.851Z" transform="translate(9.859 14.813)" fill="#4c74d0"/>
      <path id="Path_97" data-name="Path 97" d="M28.541,25.108a1.87,1.87,0,0,1-.726-.146L1.142,13.709a1.868,1.868,0,0,1,.064-3.469L27.878.122a1.862,1.862,0,0,1,1.333,0L55.527,10.244a1.869,1.869,0,0,1,.064,3.462L29.276,24.959A1.871,1.871,0,0,1,28.541,25.108Z" transform="translate(0 0)" fill="#4c74d0"/>
      <circle id="Ellipse_22" data-name="Ellipse 22" cx="2.491" cy="2.491" r="2.491" transform="translate(11.671 26.793)" fill="#3f3d56"/>
      <path id="Path_98" data-name="Path 98" d="M55.3.695,28.987,11.948a1.661,1.661,0,0,1-1.3,0L1.016.7A1.63,1.63,0,0,1,.222,0a1.66,1.66,0,0,0,.794,2.359L27.688,13.612a1.661,1.661,0,0,0,1.3,0L55.3,2.356A1.66,1.66,0,0,0,56.089,0,1.631,1.631,0,0,1,55.3.695Z" transform="translate(0.379 11.414)" opacity="0.2"/>
      <path id="Path_99" data-name="Path 99" d="M.427,20.522c.236,0,.907-.36.907-.589L1.77,6.772,16.346,1.519c.236,0,.219-.675.223-.9S16.053,0,15.817,0L.867,5.381a.851.851,0,0,0-.612.239A.813.813,0,0,0,0,6.212V20.106a.421.421,0,0,0,.427.415Z" transform="translate(13.278 9.907)" fill="#3f3d56"/>
    </g>
  </g>
</svg>
